<svg xmlns="http://www.w3.org/2000/svg" width="120" height="60" viewBox="0 0 120 60">
    <g fill="none" fill-rule="evenodd">
        <g fill-rule="nonzero">
            <g>
                <path fill="#00A4E4" d="M39.667 8.22c6.498.675 13.094 1.021 19.77 1.021v3.215c-6.79 0-13.498-.352-20.106-1.039l.336-3.197z" transform="translate(0 47)"/>
                <path fill="#4FB748" d="M20.115 5.124c6.392 1.35 12.915 2.384 19.555 3.081l-.336 3.197c-6.753-.71-13.387-1.76-19.888-3.134l.67-3.144z" transform="translate(0 47)"/>
                <path fill="#014DA1" d="M.994 0C7.21 2.011 13.59 3.72 20.12 5.109l-.668 3.144C12.81 6.841 6.321 5.103 0 3.057L.994 0z" transform="translate(0 47)"/>
            </g>
            <g>
                <path fill="#7C51A0" d="M40.23 8.22c6.498.675 13.094 1.021 19.77 1.021v3.215c-6.79 0-13.498-.352-20.106-1.039l.336-3.197z" transform="translate(0 47) matrix(-1 0 0 1 119.437 0)"/>
                <path fill="#F69332" d="M20.678 5.124c6.392 1.35 12.915 2.384 19.555 3.081l-.336 3.197c-6.753-.71-13.387-1.76-19.888-3.134l.67-3.144z" transform="translate(0 47) matrix(-1 0 0 1 119.437 0)"/>
                <path fill="#FF0004" d="M1.557 0c6.216 2.011 12.595 3.72 19.125 5.109l-.668 3.144C13.372 6.841 6.884 5.103.563 3.057L1.557 0z" transform="translate(0 47) matrix(-1 0 0 1 119.437 0)"/>
            </g>
        </g>
        <path fill="#3F484D" d="M115.532 22.693v12.53H95.734v-12.53h19.798zm-59.275-1.058v12.53H36.46v-12.53h19.798zm28.34-18.811v14.964h4.976v2.93l-12.617-.002v13.45h-3.634v-13.45l-12.618.001v-2.93h20.258V5.79H64.409V2.824h20.189zM8.79 24.988v5.93h16.408v2.893H5.223v-8.823H8.79zm103.178.6h-12.67v6.74h12.67v-6.74zm-59.276-1.059H40.023v6.741h12.67V24.53zM24.493 1.871v9.952h4.765v3h-4.765v11.223h-3.495V1.871h3.495zM9.034 9.6c1.013 0 1.97.164 2.878.493.904.33 1.687.783 2.346 1.36.659.576 1.183 1.27 1.572 2.081.387.812.582 1.712.582 2.7 0 .989-.195 1.889-.582 2.7-.39.812-.913 1.506-1.572 2.082-.659.578-1.442 1.03-2.346 1.36-.908.329-1.865.494-2.878.494-1.035 0-1.998-.165-2.893-.494-.894-.33-1.67-.782-2.329-1.36-.658-.576-1.181-1.27-1.57-2.082-.39-.811-.583-1.711-.583-2.7 0-.988.193-1.888.583-2.7.389-.811.912-1.505 1.57-2.082.659-.576 1.435-1.03 2.33-1.36.894-.328 1.857-.493 2.892-.493zm110.891 8.187v2.823h-28.87v-2.823h28.87zM9.034 12.424c-1.08 0-1.998.35-2.752 1.051-.754.7-1.13 1.62-1.13 2.76 0 1.14.376 2.062 1.13 2.762.754.7 1.672 1.05 2.752 1.05 1.083 0 2.001-.35 2.753-1.05.753-.7 1.13-1.621 1.13-2.762 0-1.14-.377-2.06-1.13-2.76-.752-.701-1.67-1.051-2.753-1.051zM56.257 1.87v17.294h-3.495V12h-6.74v6.67h-3.529v-5.575H31.8V10.2h10.694V6.246H31.975V3.354h14.047V9h6.74V1.87h3.495zm58.904.953v7.764H99.104v2.33h16.623v2.752H95.539v-7.8h16.058V5.577H95.539V2.824h19.622zM17.716 5.612v2.823H-.001V5.612h17.717zM9.034 0c.613 0 1.13.212 1.555.636.42.423.635.941.635 1.552 0 .612-.215 1.13-.635 1.554-.425.423-.942.635-1.555.635-.61 0-1.128-.212-1.551-.635-.424-.424-.636-.942-.636-1.554 0-.61.212-1.129.636-1.552C7.906.212 8.424 0 9.034 0z"/>
    </g>
</svg>
