<svg xmlns="http://www.w3.org/2000/svg" width="80" height="13" viewBox="0 0 80 13">
    <g fill="#FFF" fill-rule="evenodd">
        <path d="M10.057 5.162h1.917c.048.311.073.63.073.956 0 3.378-2.697 6.117-6.023 6.117C2.697 12.235 0 9.496 0 6.118 0 2.739 2.697 0 6.024 0c2.311 0 4.318 1.322 5.328 3.263l-1.643.934c-.687-1.357-2.08-2.285-3.685-2.285-2.288 0-4.142 1.883-4.142 4.206 0 2.322 1.854 4.206 4.142 4.206 1.963 0 3.607-1.388 4.033-3.25H6.024V5.162h4.033zM18.635 12.235c-2.39 0-4.33-1.968-4.33-4.397 0-2.428 1.94-4.397 4.33-4.397 2.391 0 4.33 1.969 4.33 4.397 0 2.429-1.939 4.397-4.33 4.397zm0-1.911c1.352 0 2.447-1.113 2.447-2.486 0-1.372-1.095-2.485-2.447-2.485-1.351 0-2.447 1.113-2.447 2.485 0 1.373 1.096 2.486 2.447 2.486zM29.553 12.235c-2.391 0-4.33-1.968-4.33-4.397 0-2.428 1.939-4.397 4.33-4.397s4.33 1.969 4.33 4.397c0 2.429-1.939 4.397-4.33 4.397zm0-1.911C30.904 10.324 32 9.21 32 7.838c0-1.372-1.096-2.485-2.447-2.485-1.352 0-2.447 1.113-2.447 2.485 0 1.373 1.095 2.486 2.447 2.486zM47.059 12.235c-2.391 0-4.33-1.968-4.33-4.397 0-2.428 1.939-4.397 4.33-4.397 2.39 0 4.33 1.969 4.33 4.397 0 2.429-1.94 4.397-4.33 4.397zm0-1.911c1.351 0 2.447-1.113 2.447-2.486 0-1.372-1.096-2.485-2.447-2.485-1.352 0-2.447 1.113-2.447 2.485 0 1.373 1.095 2.486 2.447 2.486zM57.976 12.235c-2.39 0-4.329-1.968-4.329-4.397 0-2.428 1.938-4.397 4.33-4.397 2.39 0 4.329 1.969 4.329 4.397 0 2.429-1.938 4.397-4.33 4.397zm0-1.911c1.352 0 2.448-1.113 2.448-2.486 0-1.372-1.096-2.485-2.448-2.485-1.351 0-2.447 1.113-2.447 2.485 0 1.373 1.096 2.486 2.447 2.486zM80 7.838v4.397h-1.882V7.838c0-1.372-1.096-2.485-2.447-2.485-1.352 0-2.447 1.113-2.447 2.485v4.397H71.34V7.838c0-1.372-1.095-2.485-2.447-2.485-1.351 0-2.447 1.113-2.447 2.485v4.397h-1.882V7.838c0-2.428 1.938-4.397 4.33-4.397 1.371 0 2.594.648 3.387 1.66a4.297 4.297 0 0 1 3.389-1.66C78.06 3.441 80 5.41 80 7.838zM36.141 7.838c0-2.428 1.939-4.397 4.33-4.397v1.912c-1.352 0-2.447 1.113-2.447 2.485v4.397H36.14V7.838zm8.659 0h-1.882H44.8z"/>
    </g>
</svg>
